<?xml version="1.0" encoding="UTF-8" standalone="no"?>
<!-- Uploaded to: SVG Repo, www.svgrepo.com, Generator: SVG Repo Mixer Tools -->

<svg
   width="128"
   height="128"
   viewBox="0 0 3.84 3.84"
   id="signal"
   class="icon glyph"
   version="1.1"
   sodipodi:docname="signal_emitter_big.svg"
   inkscape:version="1.1.2 (0a00cf5339, 2022-02-04)"
   xmlns:inkscape="http://www.inkscape.org/namespaces/inkscape"
   xmlns:sodipodi="http://sodipodi.sourceforge.net/DTD/sodipodi-0.dtd"
   xmlns="http://www.w3.org/2000/svg"
   xmlns:svg="http://www.w3.org/2000/svg">
  <defs
     id="defs17" />
  <sodipodi:namedview
     id="namedview15"
     pagecolor="#ffffff"
     bordercolor="#666666"
     borderopacity="1.0"
     inkscape:pageshadow="2"
     inkscape:pageopacity="0.0"
     inkscape:pagecheckerboard="0"
     showgrid="false"
     inkscape:zoom="3.22"
     inkscape:cx="-29.192547"
     inkscape:cy="69.254658"
     inkscape:window-width="1920"
     inkscape:window-height="1011"
     inkscape:window-x="1920"
     inkscape:window-y="0"
     inkscape:window-maximized="1"
     inkscape:current-layer="signal" />
  <path
     d="M 1.9199949,1.8010406 A 0.37189304,0.37198492 0 1 1 2.2918912,1.4290511 0.37189304,0.37198492 0 0 1 1.9199949,1.8010406 Z m 0,-0.3719895 z m 0,0 z m 0,0 z m 0,0 z m 0,0 z m 0,0 z m 0,0 z m 0,0 z"
     style="fill:#fc7f7f;fill-opacity:1;stroke-width:0.18597"
     id="path2" />
  <path
     d="M 1.9199949,3.78 A 0.18594652,0.18599246 0 0 1 1.7340467,3.5940104 V 1.8010437 a 0.18594816,0.18599411 0 0 1 0.3718962,0 V 3.5940104 A 0.18594652,0.18599246 0 0 1 1.9199949,3.78 Z"
     style="fill:#fc7f7f;fill-opacity:1;stroke-width:0.18597"
     id="path4" />
  <path
     d="m 2.5782463,2.2734608 a 0.18594652,0.18599246 0 0 1 -0.1320186,-0.3180495 0.74378617,0.74396983 0 0 0 0,-1.05085812 0.18594652,0.18599246 0 0 1 0,-0.26410953 0.18594652,0.18599246 0 0 1 0.2621875,0 1.1156792,1.1159548 0 0 1 0,1.57907615 0.18594652,0.18599246 0 0 1 -0.1301586,0.05394 z"
     style="fill:#fc7f7f;fill-opacity:1;stroke-width:0.18597"
     id="path6" />
  <path
     d="m 1.2617445,2.2734608 a 0.18594652,0.18599246 0 0 1 -0.1301585,-0.05394 1.1156792,1.1159548 0 0 1 0,-1.57907612 0.18594652,0.18599246 0 0 1 0.2621875,0 0.18594652,0.18599246 0 0 1 0,0.26410952 0.74378617,0.74396983 0 0 0 0,1.0508581 0.18594652,0.18599246 0 0 1 -0.1320187,0.3180495 z"
     style="fill:#fc7f7f;fill-opacity:1;stroke-width:0.18597"
     id="path8" />
  <path
     d="m 3.1026148,2.7998198 a 0.18594652,0.18599246 0 0 1 -0.1301584,-0.3180494 1.4875722,1.4879396 0 0 0 0,-2.1035742 0.18594652,0.18599246 0 0 1 0,-0.26410952 0.18594652,0.18599246 0 0 1 0.2621873,0 1.8594653,1.8599246 0 0 1 0,2.63179312 0.18594652,0.18599246 0 0 1 -0.1320289,0.05394 z"
     style="fill:#fc7f7f;fill-opacity:1;stroke-width:0.18597"
     id="path10" />
  <path
     d="m 0.73737485,2.7998198 a 0.18594652,0.18599246 0 0 1 -0.13201856,-0.05394 1.8594653,1.8599246 0 0 1 0,-2.63179312 0.18594652,0.18599246 0 0 1 0.26218744,0 0.18594652,0.18599246 0 0 1 0,0.26410952 1.4875722,1.4879396 0 0 0 0,2.0998542 0.18594652,0.18599246 0 0 1 -0.13015853,0.3180494 z"
     style="fill:#fc7f7f;fill-opacity:1;stroke-width:0.18597"
     id="path12" />
</svg>
