<?xml version="1.0" encoding="UTF-8" standalone="no"?>
<!-- Uploaded to: SVG Repo, www.svgrepo.com, Generator: SVG Repo Mixer Tools -->

<svg
   fill="#000000"
   version="1.1"
   id="Capa_1"
   width="16"
   height="16"
   viewBox="0 0 0.91999997 0.91999997"
   xml:space="preserve"
   sodipodi:docname="observer.svg"
   inkscape:version="1.1.2 (0a00cf5339, 2022-02-04)"
   xmlns:inkscape="http://www.inkscape.org/namespaces/inkscape"
   xmlns:sodipodi="http://sodipodi.sourceforge.net/DTD/sodipodi-0.dtd"
   xmlns="http://www.w3.org/2000/svg"
   xmlns:svg="http://www.w3.org/2000/svg"><defs
   id="defs9" /><sodipodi:namedview
   id="namedview7"
   pagecolor="#ffffff"
   bordercolor="#666666"
   borderopacity="1.0"
   inkscape:pageshadow="2"
   inkscape:pageopacity="0.0"
   inkscape:pagecheckerboard="0"
   showgrid="false"
   inkscape:zoom="21.862053"
   inkscape:cx="6.8154622"
   inkscape:cy="9.7429091"
   inkscape:window-width="1920"
   inkscape:window-height="1011"
   inkscape:window-x="1920"
   inkscape:window-y="0"
   inkscape:window-maximized="1"
   inkscape:current-layer="Capa_1"
   units="px" />

<path
   style="fill:#fc7f7f;fill-opacity:1;stroke-width:0.00119231"
   d="m 0.17114693,0.80287165 c -0.00921,-0.003943 -0.014169,-0.0121351 -0.011703,-0.0193305 7.017e-4,-0.002048 0.00867,-0.0177299 0.017717,-0.0348496 0.018096,-0.0342594 0.021681,-0.0388759 0.034425,-0.0443232 0.00659,-0.002818 0.00754,-0.002913 0.032287,-0.003254 l 0.025496,-3.5072e-4 v -0.0518138 -0.0518138 l -0.00828,-0.005747 c -0.1149723,-0.0798216 -0.1675994,-0.20363065 -0.1379591,-0.32456372 0.011601,-0.0473314 0.038094,-0.0959922 0.07287,-0.13384248 0.012621,-0.0137365 0.025072,-0.0192172 0.04033,-0.0177527 0.015011,0.001441 0.010663,-0.001763 0.1419717,0.1046064 l 0.1228394,0.0995086 0.027226,-0.0219974 c 0.025705,-0.0207685 0.02718,-0.0221773 0.026403,-0.0252174 -0.00269,-0.0105347 -0.00326,-0.0176179 -0.00201,-0.0248993 0.00262,-0.0152768 0.00986,-0.0272733 0.022725,-0.0376483 0.031205,-0.0251713 0.079477,-0.0258735 0.1112058,-0.001617 0.026585,0.0203242 0.033154,0.0499642 0.016948,0.0764759 -0.010022,0.0163954 -0.029846,0.0292671 -0.052106,0.0338334 -0.00972,0.001994 -0.026676,0.002065 -0.036689,1.5567e-4 l -0.0075,-0.00143 -0.027265,0.0221143 -0.027265,0.0221143 0.1218966,0.0987411 c 0.1364603,0.11053823 0.1303758,0.10494705 0.1302097,0.11965364 -9.91e-5,0.008765 -0.00427,0.0168255 -0.011874,0.0229439 -0.00643,0.005171 -0.037816,0.0221394 -0.055633,0.0300735 -0.048777,0.0217209 -0.1073614,0.0360708 -0.1651444,0.0404512 -0.021464,0.001627 -0.074472,7.1933e-4 -0.093633,-0.001603 -0.031414,-0.003808 -0.061514,-0.009916 -0.084837,-0.0172157 -0.00666,-0.002085 -0.012651,-0.003792 -0.013306,-0.003792 -6.719e-4,0 -0.00119,0.0109636 -0.00119,0.0251365 v 0.0251365 l 0.023509,3.6214e-4 c 0.022525,3.4712e-4 0.023792,4.8296e-4 0.030274,0.003248 0.013141,0.005605 0.016659,0.0101617 0.035494,0.0459748 0.018064,0.0343488 0.019253,0.0378977 0.014951,0.0446388 -0.00236,0.003698 -0.00541,0.005982 -0.011119,0.008325 -0.00383,0.001573 -0.018192,0.001735 -0.1503267,0.001692 -0.1417965,-4.659e-5 -0.1462303,-1.082e-4 -0.1509353,-0.002123 z"
   id="path159" /></svg>
